<?xml version="1.0" encoding="UTF-8" standalone="no"?>
<!-- Created with Inkscape (http://www.inkscape.org/) -->

<svg
   xmlns:dc="http://purl.org/dc/elements/1.1/"
   xmlns:cc="http://creativecommons.org/ns#"
   xmlns:rdf="http://www.w3.org/1999/02/22-rdf-syntax-ns#"
   xmlns:svg="http://www.w3.org/2000/svg"
   xmlns="http://www.w3.org/2000/svg"
   xmlns:xlink="http://www.w3.org/1999/xlink"
   xmlns:sodipodi="http://sodipodi.sourceforge.net/DTD/sodipodi-0.dtd"
   xmlns:inkscape="http://www.inkscape.org/namespaces/inkscape"
   width="32"
   height="32"
   viewBox="0 0 32 32.000001"
   id="svg2"
   version="1.1"
   inkscape:version="0.91 r13725"
   sodipodi:docname="appicon.svg">
  <defs
     id="defs4">
    <linearGradient
       inkscape:collect="always"
       id="linearGradient4261">
      <stop
         style="stop-color:#000000;stop-opacity:0.18446602"
         offset="0"
         id="stop4263" />
      <stop
         style="stop-color:#000000;stop-opacity:0;"
         offset="1"
         id="stop4265" />
    </linearGradient>
    <linearGradient
       inkscape:collect="always"
       xlink:href="#linearGradient4261"
       id="linearGradient4267"
       x1="17.28125"
       y1="22.65625"
       x2="19.5"
       y2="24.15625"
       gradientUnits="userSpaceOnUse" />
  </defs>
  <sodipodi:namedview
     id="base"
     pagecolor="#ffffff"
     bordercolor="#666666"
     borderopacity="1.0"
     inkscape:pageopacity="0.0"
     inkscape:pageshadow="2"
     inkscape:zoom="8"
     inkscape:cx="-0.83071496"
     inkscape:cy="20.554337"
     inkscape:document-units="px"
     inkscape:current-layer="layer1"
     showgrid="false"
     units="px"
     inkscape:window-width="1280"
     inkscape:window-height="738"
     inkscape:window-x="1680"
     inkscape:window-y="278"
     inkscape:window-maximized="1" />
  <metadata
     id="metadata7">
    <rdf:RDF>
      <cc:Work
         rdf:about="">
        <dc:format>image/svg+xml</dc:format>
        <dc:type
           rdf:resource="http://purl.org/dc/dcmitype/StillImage" />
        <dc:title></dc:title>
      </cc:Work>
    </rdf:RDF>
  </metadata>
  <g
     inkscape:label="Layer 1"
     inkscape:groupmode="layer"
     id="layer1"
     transform="translate(0,-1020.3622)">
    <path
       style="fill:#9b9b9b;fill-opacity:1;stroke:none;stroke-width:14;stroke-linecap:round;stroke-linejoin:round;stroke-miterlimit:4;stroke-dasharray:none;stroke-opacity:1"
       d="m 16,1020.3622 a 16,15.99995 0 0 0 -16,16 16,15.99995 0 0 0 16,16 16,15.99995 0 0 0 16,-16 16,15.99995 0 0 0 -16,-16 z m 0,12.0001 a 3.9999999,3.9999874 0 0 1 4,3.9999 3.9999999,3.9999874 0 0 1 -4,3.9999 3.9999999,3.9999874 0 0 1 -4,-3.9999 3.9999999,3.9999874 0 0 1 4,-3.9999 z"
       id="path4136"
       inkscape:connector-curvature="0" />
    <g
       id="g4151"
       transform="matrix(1.5319565,0,0,1.5319517,-8.5113034,-551.2946)">
      <path
         id="rect4141"
         transform="translate(0,1020.3622)"
         d="m 15.566406,19.738281 0,2.164063 -1.048828,0 0.822266,1.423828 0.822265,1.423828 0.822266,-1.423828 0.822266,-1.423828 -1.048829,0 0,-2.164063 -1.191406,0 z"
         style="fill:#ff0000;fill-opacity:1;stroke:none;stroke-width:14;stroke-linecap:round;stroke-linejoin:round;stroke-miterlimit:4;stroke-dasharray:none;stroke-opacity:1"
         inkscape:connector-curvature="0" />
      <path
         id="rect4146-9"
         transform="translate(0,1020.3622)"
         d="m 16.753906,19.732422 0,2.173828 1.048828,0 -0.822265,1.423828 -0.810547,1.404297 1.939453,1.371094 2.554687,-3.607422 -3.910156,-2.765625 z"
         style="fill:url(#linearGradient4267);fill-opacity:1;stroke:none;stroke-width:14;stroke-linecap:round;stroke-linejoin:round;stroke-miterlimit:4;stroke-dasharray:none;stroke-opacity:1"
         inkscape:connector-curvature="0" />
    </g>
  </g>
</svg>
